<svg xmlns="http://www.w3.org/2000/svg"  viewBox="0 0 100 100" width="100%" height="100%"><path fill="#a0d2a1" d="M77.966,33.142c-0.678-3.092-3.564-5.185-6.818-5.185c-0.602,0-1.705,0.086-1.705,0 c0-2.864-2.119-5.457-4.943-5.457c-2.501,0-4.219,1.352-5.284,3.728c-1.278-1.08-3.012-1.728-5.114-1.728 c-2.86,0-5.31,1.787-6.322,4.319l0.19,0.533c-1.141-0.872-2.556-1.395-4.095-1.395c-1.14,0-2.197,0.311-3.141,0.812l-0.268-0.812 C39.51,25.912,36.881,24.5,34.5,24.5c-2.998,0-5.543,2.264-5.966,5.185c-0.801,0.005-1.539,0-1.705,0 c-3.353,0-7.156,1.246-8.228,6.913l16.592,9.133l24-0.5L77.966,33.142z"/><path fill="#52bea0" d="M84.448,47.284C87.777,40.358,87.5,33.5,87.5,33.5s-12.851-3.921-22.348,2.41 C60.025,39.565,58.249,43.744,58,47.5 M36.726,47.547c-0.869-2.729-2.453-5.197-4.739-6.967C25.432,35.5,13.5,35.5,13.5,35.5 s0.639,7.071,3.832,12.133"/><path fill="#1f212b" d="M17.332,48c-0.165,0-0.328-0.083-0.423-0.233c-3.22-5.105-3.881-11.933-3.907-12.221l-0.05-0.54 L13.494,35c0.497,0.001,12.181-0.077,18.8,5.052c2.268,1.755,3.965,4.249,4.908,7.21c0.084,0.263-0.062,0.544-0.325,0.628 c-0.261,0.085-0.545-0.062-0.628-0.325c-0.881-2.768-2.461-5.092-4.567-6.723c-5.546-4.297-15.205-4.783-17.618-4.836 c0.228,1.726,1.115,7.142,3.691,11.227c0.147,0.233,0.077,0.542-0.156,0.689C17.516,47.975,17.424,48,17.332,48z M58.317,47.965 c-0.012,0-0.022,0-0.034-0.001c-0.275-0.019-0.484-0.256-0.466-0.532c0.311-4.678,2.787-8.703,7.361-11.964 c9.325-6.053,21.925-2.599,22.457-2.449l0.332,0.094l0.03,0.344c0.024,0.284,0.567,7.041-2.783,14.01 c-0.12,0.25-0.419,0.354-0.667,0.234c-0.249-0.12-0.354-0.418-0.233-0.667c2.806-5.837,2.769-11.672,2.707-13.139 c-2.082-0.506-13.188-2.853-21.28,2.401c-4.301,3.066-6.637,6.84-6.926,11.204C58.798,47.763,58.578,47.965,58.317,47.965z"/><path fill="#1f212b" d="M26.637,47.965c-0.129,0-0.258-0.05-0.356-0.149l-5.114-5.185c-0.193-0.197-0.191-0.513,0.005-0.707 c0.197-0.194,0.513-0.192,0.708,0.005l5.114,5.185c0.193,0.197,0.191,0.513-0.005,0.707C26.891,47.917,26.764,47.965,26.637,47.965 z M70.759,47.533c-0.062,0-0.125-0.011-0.186-0.036c-0.257-0.103-0.381-0.394-0.278-0.65c1.963-4.911,7.1-6.696,7.317-6.77 c0.261-0.089,0.544,0.053,0.634,0.313c0.088,0.261-0.052,0.545-0.313,0.634c-0.049,0.017-4.921,1.719-6.71,6.193 C71.145,47.415,70.957,47.533,70.759,47.533z"/><path fill="#1f212b" d="M50.5,37.059c-0.276,0-0.5-0.224-0.5-0.5V34.83c0-3.537-2.834-6.414-6.318-6.414 c-0.985,0-1.964,0.254-2.907,0.754l-0.523,0.278l-0.453-1.376c-0.823-1.75-3.193-3.113-5.491-3.113 c-2.727,0-5.078,2.045-5.471,4.757l-0.062,0.425l-0.431,0.003c-0.628,0.005-1.22,0.002-1.525,0l-0.182,0 c-3.966,0-6.489,1.847-7.501,5.489c-0.074,0.265-0.345,0.42-0.615,0.348c-0.266-0.074-0.422-0.35-0.348-0.616 c1.146-4.128,3.993-6.221,8.464-6.221l0.186,0c0.234,0.001,0.638,0.003,1.1,0.001c0.638-2.986,3.31-5.187,6.385-5.187 c2.661,0,5.42,1.61,6.419,3.745l0.108,0.326c2.129-0.937,4.485-0.729,6.313,0.271c1.139-2.78,3.786-4.573,6.762-4.573 c1.886,0,3.576,0.501,4.932,1.457C59.996,22.988,61.651,22,64.136,22c2.941,0,5.362,2.302,5.596,5.221 c0.157-0.004,0.337-0.011,0.479-0.016c0.265-0.01,0.533-0.02,0.743-0.02c3.157,0,5.982,1.864,7.028,4.639 c0.098,0.258-0.033,0.547-0.291,0.644c-0.26,0.097-0.548-0.033-0.645-0.292c-0.9-2.387-3.349-3.991-6.093-3.991 c-0.199,0-0.454,0.01-0.705,0.02c-0.922,0.036-1.14,0.044-1.342-0.151l-0.153-0.147l-0.004-0.221c0-2.583-2.07-4.685-4.614-4.685 c-2.271,0-3.664,0.945-4.657,3.161l-0.271,0.606L58.7,26.338c-1.247-1.053-2.903-1.61-4.791-1.61c-2.586,0-4.885,1.572-5.858,4.004 c-0.016,0.04-0.035,0.076-0.06,0.109C49.814,30.191,51,32.373,51,34.83v1.729C51,36.835,50.776,37.059,50.5,37.059z"/><path fill="#f27c7c" d="M35.159,47.465c0-6.682,5.342-12.099,11.932-12.099s11.932,5.417,11.932,12.099"/><path fill="#1f212b" d="M59.022,47.965c-0.276,0-0.5-0.224-0.5-0.5c0-6.396-5.128-11.599-11.432-11.599 S35.659,41.07,35.659,47.465c0,0.276-0.224,0.5-0.5,0.5s-0.5-0.224-0.5-0.5c0-6.947,5.577-12.599,12.432-12.599 s12.432,5.652,12.432,12.599C59.522,47.742,59.299,47.965,59.022,47.965z"/><path fill="#6474a6" d="M65,78v4H35v-4h28.86c0.04,0,0.07,0.02,0.11,0.02S64.05,78,64.09,78H65z M14.05,46 c0.34,4.62,2.91,23.8,22.09,30h27.72c19.18-6.2,21.75-25.38,22.09-30H14.05z M78.15,60.75c-2.55,4.36-6.05,7.79-10.41,10.19 C67.67,70.98,67.58,71,67.5,71c-0.17,0-0.35-0.1-0.44-0.26c-0.13-0.24-0.04-0.55,0.2-0.68c4.19-2.31,7.57-5.61,10.02-9.81 c0.14-0.24,0.45-0.32,0.69-0.18C78.21,60.21,78.29,60.51,78.15,60.75z M80.51,55.67c-0.37,1.04-0.8,2.07-1.28,3.05 C79.15,58.9,78.97,59,78.78,59c-0.07,0-0.15-0.02-0.22-0.05c-0.24-0.12-0.35-0.42-0.23-0.67c0.46-0.95,0.88-1.94,1.24-2.95 c0.1-0.26,0.38-0.39,0.64-0.3C80.47,55.12,80.61,55.41,80.51,55.67z M80.69,54c-0.05,0-0.09-0.01-0.14-0.02 c-0.27-0.07-0.42-0.35-0.35-0.62c0.19-0.64,0.35-1.31,0.49-1.96c0.05-0.27,0.32-0.45,0.59-0.39s0.44,0.32,0.39,0.59 c-0.14,0.68-0.31,1.37-0.5,2.04C81.1,53.86,80.9,54,80.69,54z"/><path fill="#1f212b" d="M78.15,60.75c-2.55,4.36-6.05,7.79-10.41,10.19C67.67,70.98,67.58,71,67.5,71 c-0.17,0-0.35-0.1-0.44-0.26c-0.13-0.24-0.04-0.55,0.2-0.68c4.19-2.31,7.57-5.61,10.02-9.81c0.14-0.24,0.45-0.32,0.69-0.18 C78.21,60.21,78.29,60.51,78.15,60.75z M80.51,55.67c-0.37,1.04-0.8,2.07-1.28,3.05C79.15,58.9,78.97,59,78.78,59 c-0.07,0-0.15-0.02-0.22-0.05c-0.24-0.12-0.35-0.42-0.23-0.67c0.46-0.95,0.88-1.94,1.24-2.95c0.1-0.26,0.38-0.39,0.64-0.3 C80.47,55.12,80.61,55.41,80.51,55.67z M81.67,51.6c-0.14,0.68-0.31,1.37-0.5,2.04C81.1,53.86,80.9,54,80.69,54 c-0.05,0-0.09-0.01-0.14-0.02c-0.27-0.07-0.42-0.35-0.35-0.62c0.19-0.64,0.35-1.31,0.49-1.96c0.05-0.27,0.32-0.45,0.59-0.39 C81.55,51.07,81.72,51.33,81.67,51.6z"/><path fill="#1f212b" d="M87,44h-3h-1H17.08h-1.01H13c-0.27,0-0.52,0.1-0.71,0.29S12,44.74,12,45 c0,0.25,0.35,23.55,21,31.98c0,0.01,0,0.01,0,0.02v6c0,0.55,0.45,1,1,1h32c0.55,0,1-0.45,1-1v-6.03C87.65,68.55,88,45.25,88,45 c0-0.26-0.1-0.52-0.29-0.71S87.27,44,87,44z M65,82H35v-4h28.86c0.04,0,0.07,0.02,0.11,0.02S64.05,78,64.09,78H65V82z M63.86,76 H36.14c-19.18-6.2-21.75-25.38-22.09-30h71.9C85.61,50.62,83.04,69.8,63.86,76z"/></svg>